<svg width="36" height="600" viewBox="0 0 36 600" fill="none" xmlns="http://www.w3.org/2000/svg">
<path d="M18 1C27.1127 1 34.5 8.3873 34.5 17.5V582.5C34.5 591.613 27.1127 599 18 599C8.8873 599 1.5 591.613 1.5 582.5V17.5C1.5 8.3873 8.8873 1 18 1Z" fill="white"/>
<path d="M18 1C27.1127 1 34.5 8.3873 34.5 17.5V582.5C34.5 591.613 27.1127 599 18 599C8.8873 599 1.5 591.613 1.5 582.5V17.5C1.5 8.3873 8.8873 1 18 1Z" stroke="#1D798B" stroke-width="2"/>
<path d="M10.544 281.808H10.96V284.352H6.032L5.84 287.776C6.14933 287.563 6.48533 287.403 6.848 287.296C7.22133 287.189 7.60533 287.136 8 287.136C9.056 287.136 9.89333 287.461 10.512 288.112C11.1307 288.752 11.44 289.611 11.44 290.688C11.44 291.296 11.3227 291.867 11.088 292.4C10.8533 292.923 10.4747 293.349 9.952 293.68C9.44 294 8.768 294.16 7.936 294.16C7.2 294.16 6.56 293.979 6.016 293.616C5.472 293.243 5.07733 292.592 4.832 291.664L5.84 291.376C5.968 292.251 6.21867 292.848 6.592 293.168C6.96533 293.488 7.38667 293.648 7.856 293.648C8.51733 293.648 9.01867 293.408 9.36 292.928C9.712 292.437 9.888 291.691 9.888 290.688C9.888 289.803 9.73333 289.083 9.424 288.528C9.12533 287.963 8.592 287.68 7.824 287.68C7.46133 287.68 7.088 287.749 6.704 287.888C6.32 288.016 5.94133 288.245 5.568 288.576L5.248 288.432L5.552 283.12H9.52C9.904 283.12 10.1333 283.104 10.208 283.072C10.2933 283.029 10.352 282.907 10.384 282.704L10.544 281.808ZM20.0223 288.048V289.056C20.0223 290.08 19.8783 290.976 19.5903 291.744C19.3023 292.512 18.8809 293.109 18.3263 293.536C17.7716 293.952 17.0996 294.16 16.3103 294.16C15.5103 294.16 14.8329 293.952 14.2783 293.536C13.7343 293.109 13.3183 292.512 13.0303 291.744C12.7423 290.976 12.5983 290.08 12.5983 289.056V288.048C12.5983 287.024 12.7423 286.133 13.0303 285.376C13.3183 284.608 13.7343 284.016 14.2783 283.6C14.8329 283.173 15.5103 282.96 16.3103 282.96C17.0996 282.96 17.7716 283.173 18.3263 283.6C18.8809 284.016 19.3023 284.608 19.5903 285.376C19.8783 286.133 20.0223 287.024 20.0223 288.048ZM18.4703 286.928C18.4703 285.691 18.2836 284.805 17.9103 284.272C17.5369 283.739 17.0036 283.472 16.3103 283.472C15.6169 283.472 15.0836 283.739 14.7103 284.272C14.3369 284.805 14.1503 285.691 14.1503 286.928V290.176C14.1503 291.424 14.3369 292.315 14.7103 292.848C15.0836 293.381 15.6169 293.648 16.3103 293.648C17.0036 293.648 17.5369 293.381 17.9103 292.848C18.2836 292.315 18.4703 291.424 18.4703 290.176V286.928ZM25.2285 285.264V285.76C25.2285 286.155 25.1378 286.523 24.9565 286.864C24.7858 287.205 24.5352 287.483 24.2045 287.696C23.8845 287.899 23.4898 288 23.0205 288C22.5618 288 22.1672 287.899 21.8365 287.696C21.5058 287.483 21.2552 287.205 21.0845 286.864C20.9138 286.523 20.8285 286.155 20.8285 285.76V285.264C20.8285 284.869 20.9138 284.507 21.0845 284.176C21.2552 283.835 21.5058 283.563 21.8365 283.36C22.1672 283.147 22.5618 283.04 23.0205 283.04C23.4898 283.04 23.8845 283.147 24.2045 283.36C24.5352 283.563 24.7858 283.835 24.9565 284.176C25.1378 284.507 25.2285 284.869 25.2285 285.264ZM28.7165 283.12L29.1325 283.392L23.1485 294L22.7165 293.744L28.7165 283.12ZM24.2205 284.928C24.2205 284.469 24.1138 284.101 23.9005 283.824C23.6872 283.547 23.3938 283.408 23.0205 283.408C22.6472 283.408 22.3592 283.547 22.1565 283.824C21.9538 284.101 21.8525 284.469 21.8525 284.928V286.096C21.8525 286.565 21.9538 286.939 22.1565 287.216C22.3592 287.493 22.6472 287.632 23.0205 287.632C23.3938 287.632 23.6872 287.493 23.9005 287.216C24.1138 286.939 24.2205 286.565 24.2205 286.096V284.928ZM31.0685 291.344V291.84C31.0685 292.235 30.9778 292.603 30.7965 292.944C30.6258 293.285 30.3752 293.563 30.0445 293.776C29.7245 293.979 29.3298 294.08 28.8605 294.08C28.4018 294.08 28.0072 293.979 27.6765 293.776C27.3458 293.563 27.0952 293.285 26.9245 292.944C26.7538 292.603 26.6685 292.235 26.6685 291.84V291.344C26.6685 290.949 26.7538 290.587 26.9245 290.256C27.0952 289.915 27.3458 289.643 27.6765 289.44C28.0072 289.227 28.4018 289.12 28.8605 289.12C29.3298 289.12 29.7245 289.227 30.0445 289.44C30.3752 289.643 30.6258 289.915 30.7965 290.256C30.9778 290.587 31.0685 290.949 31.0685 291.344ZM30.0605 291.008C30.0605 290.549 29.9538 290.181 29.7405 289.904C29.5272 289.627 29.2338 289.488 28.8605 289.488C28.4872 289.488 28.1992 289.627 27.9965 289.904C27.7938 290.181 27.6925 290.549 27.6925 291.008V292.176C27.6925 292.645 27.7938 293.019 27.9965 293.296C28.1992 293.573 28.4872 293.712 28.8605 293.712C29.2338 293.712 29.5272 293.573 29.7405 293.296C29.9538 293.019 30.0605 292.645 30.0605 292.176V291.008Z" fill="black"/>
<path d="M2 316C2 307.163 9.16344 300 18 300C26.8366 300 34 307.163 34 316V584C34 592.837 26.8366 600 18 600C9.16344 600 2 592.837 2 584V316Z" fill="#1D798B"/>
</svg>
