<svg width="20" height="20" viewBox="0 0 20 20" fill="none" xmlns="http://www.w3.org/2000/svg">
<path d="M7.09644 1.3147C8.34961 0.34397 10.3345 0.235812 11.7234 1.02856L11.9929 1.19946L17.7537 5.22974C18.2227 5.5582 18.6665 6.09686 18.9939 6.72388C19.3213 7.35106 19.5095 8.02414 19.5095 8.59985V15.3801C19.5094 17.6538 17.664 19.5 15.3904 19.5002H4.61011C2.3378 19.5002 0.490219 17.6454 0.48999 15.3704V8.46997L0.497803 8.26489C0.534491 7.77625 0.697824 7.2206 0.95874 6.69067C1.25678 6.0854 1.66124 5.55647 2.08765 5.22388L7.09644 1.3147ZM9.99976 11.7502C9.31372 11.7504 8.74976 12.3142 8.74976 13.0002V16.0002C8.74992 16.6862 9.31382 17.2501 9.99976 17.2502C10.6858 17.2502 11.2496 16.6863 11.2498 16.0002V13.0002C11.2498 12.3141 10.6859 11.7502 9.99976 11.7502Z" fill="#927F6E" stroke="#927F6E"/>
</svg>
