<svg width="24" height="24" viewBox="0 0 24 24" fill="none" xmlns="http://www.w3.org/2000/svg">
<path d="M11 1.75C16.1039 1.75 20.25 5.89614 20.25 11C20.25 16.1039 16.1039 20.25 11 20.25C5.89614 20.25 1.75 16.1039 1.75 11C1.75 5.89614 5.89614 1.75 11 1.75ZM11 2.25C6.17386 2.25 2.25 6.17386 2.25 11C2.25 15.8261 6.17386 19.75 11 19.75C15.8261 19.75 19.75 15.8261 19.75 11C19.75 6.17386 15.8261 2.25 11 2.25Z" fill="#927F6E" stroke="#927F6E"/>
<path d="M20.2704 18.5C21.1762 18.5001 21.7619 18.8423 22.0067 19.3115C22.2588 19.7948 22.2239 20.477 21.7245 21.2217L21.7235 21.2236C21.1021 22.1601 20.4852 22.29 20.16 22.29C20.1177 22.29 20.0672 22.2849 20.0009 22.2754L19.993 22.2744L19.8593 22.249C19.7126 22.2125 19.5317 22.1381 19.3466 21.9893C19.1317 21.8165 18.8885 21.5252 18.6874 21.0273L18.6044 20.8008C18.398 20.1808 18.483 19.6029 18.786 19.1816C19.0873 18.763 19.6142 18.5 20.2704 18.5ZM20.2704 19C19.8596 19 19.4566 19.1346 19.203 19.4658L19.1913 19.4814C18.9485 19.8255 18.9562 20.2655 19.0848 20.6445V20.6455C19.1827 20.9447 19.3079 21.1934 19.451 21.3809C19.5757 21.5439 19.7835 21.7505 20.0682 21.7861C20.3484 21.821 20.5991 21.677 20.7606 21.5547C20.9468 21.4137 21.1344 21.211 21.3114 20.9541L21.3143 20.9492C21.4861 20.6945 21.5945 20.4513 21.6434 20.2275C21.6842 20.0407 21.6899 19.8337 21.621 19.6455L21.5868 19.5664L21.5389 19.4844C21.4169 19.3037 21.2258 19.1923 21.0526 19.126C20.8386 19.0441 20.5752 19 20.2704 19Z" fill="#927F6E" stroke="#927F6E"/>
</svg>
